<svg width="544" height="104" viewBox="0 0 544 104" fill="none" xmlns="http://www.w3.org/2000/svg">
<path d="M0 48.125V0H13.75V13.75H41.25V20.625H48.125V48.125H34.375V20.625H13.75V48.125H0ZM61.875 48.125V41.25H55V20.625H61.875V13.75H96.25V20.625H103.125V41.25H96.25V48.125H61.875ZM68.75 41.25H89.375V20.625H68.75V41.25ZM123.75 41.25H130.625V48.125H116.875V41.25H110V13.75H123.75V41.25ZM137.5 13.75V41.25H130.625V13.75H137.5ZM158.125 13.75V41.25H151.25V48.125H137.5V41.25H144.375V13.75H158.125ZM226.875 48.125V41.25H220V20.625H226.875V13.75H268.125V20.625H233.75V41.25H268.125V48.125H226.875ZM281.875 48.125V41.25H295.625V6.875H288.75V0H309.375V41.25H323.125V48.125H281.875ZM336.875 48.125V41.25H330V20.625H336.875V13.75H371.25V20.625H378.125V41.25H371.25V48.125H336.875ZM343.75 41.25H364.375V20.625H343.75V41.25ZM391.875 48.125V41.25H385V13.75H398.75V41.25H419.375V13.75H433.125V48.125H391.875ZM446.875 48.125V41.25H440V20.625H446.875V13.75H474.375V0H488.125V48.125H446.875ZM453.75 41.25H474.375V20.625H453.75V41.25ZM495 48.125V41.25H529.375V34.375H501.875V27.5H495V20.625H501.875V13.75H536.25V20.625H508.75V27.5H536.25V34.375H543.125V41.25H536.25V48.125H495ZM116.875 103.125V96.25H110V89.375H116.875V82.5H144.375V75.625H116.875V68.75H151.25V75.625H158.125V103.125H116.875ZM123.75 96.25H144.375V89.375H123.75V96.25ZM185.625 75.625H192.5V82.5H185.625V103.125H171.875V68.75H185.625V75.625ZM213.125 68.75V75.625H192.5V68.75H213.125ZM226.875 103.125V96.25H220V75.625H226.875V68.75H261.25V75.625H268.125V89.375H233.75V96.25H261.25V103.125H226.875ZM233.75 82.5H254.375V75.625H233.75V82.5ZM330 103.125V68.75H371.25V75.625H378.125V103.125H364.375V75.625H357.5V103.125H343.75V75.625H336.875V103.125H330ZM391.875 103.125V96.25H385V89.375H391.875V82.5H419.375V75.625H391.875V68.75H426.25V75.625H433.125V103.125H391.875ZM398.75 96.25H419.375V89.375H398.75V96.25ZM446.875 103.125V96.25H440V75.625H446.875V68.75H474.375V55H488.125V103.125H446.875ZM453.75 96.25H474.375V75.625H453.75V96.25ZM501.875 103.125V96.25H495V75.625H501.875V68.75H536.25V75.625H543.125V89.375H508.75V96.25H536.25V103.125H501.875ZM508.75 82.5H529.375V75.625H508.75V82.5Z" fill="#82AFFF"/>
</svg>
